<?xml version="1.0" standalone="no"?>
<!DOCTYPE svg PUBLIC "-//W3C//DTD SVG 20010904//EN"
 "http://www.w3.org/TR/2001/REC-SVG-20010904/DTD/svg10.dtd">
<svg version="1.0" xmlns="http://www.w3.org/2000/svg"
 width="2712.000000pt" height="2712.000000pt" viewBox="0 0 2712.000000 2712.000000"
 preserveAspectRatio="xMidYMid meet">
<metadata>
Created by potrace 1.14, written by Peter Selinger 2001-2017
</metadata>
<g transform="translate(0.000000,2712.000000) scale(0.100000,-0.100000)"
fill="#000000" stroke="none">
<path d="M3379 17155 c-2 -2 -44 -6 -94 -9 -49 -3 -101 -8 -115 -11 -14 -3
-43 -7 -65 -9 -49 -6 -87 -12 -185 -31 -41 -8 -86 -17 -100 -19 -14 -3 -50
-12 -80 -21 -30 -8 -66 -17 -80 -20 -104 -20 -512 -168 -545 -197 -5 -4 -16
-8 -24 -8 -8 0 -22 -6 -30 -13 -9 -7 -36 -22 -61 -32 -73 -31 -363 -200 -425
-247 -60 -46 -107 -78 -113 -78 -4 0 -14 -9 -22 -20 -8 -11 -19 -20 -25 -20
-5 0 -26 -15 -46 -33 -20 -17 -48 -41 -61 -52 -210 -168 -496 -475 -645 -695
-21 -30 -41 -56 -45 -58 -5 -2 -8 -7 -8 -12 0 -4 -20 -38 -45 -75 -51 -76
-171 -288 -166 -294 1 -2 -1 -7 -6 -10 -14 -10 -50 -88 -153 -336 -17 -42 -32
-84 -32 -92 0 -4 -4 -16 -10 -26 -11 -21 -68 -207 -74 -245 -3 -14 -9 -33 -15
-44 -5 -10 -8 -18 -5 -18 3 0 0 -15 -5 -32 -6 -18 -12 -46 -14 -62 -2 -15 -7
-35 -9 -45 -3 -9 -8 -29 -11 -46 -2 -16 -7 -41 -10 -55 -11 -51 -13 -70 -30
-205 -20 -159 -27 -600 -12 -740 15 -139 19 -174 33 -255 21 -124 27 -158 40
-217 3 -16 7 -35 8 -43 1 -8 5 -22 8 -30 6 -13 13 -44 19 -75 1 -5 10 -34 20
-62 10 -29 16 -53 14 -53 -2 0 7 -27 20 -60 13 -33 22 -60 20 -60 -3 0 4 -20
15 -45 11 -25 17 -45 14 -45 -2 0 2 -10 10 -22 8 -13 15 -26 15 -31 0 -4 9
-28 21 -53 11 -26 20 -48 20 -50 0 -2 14 -34 31 -71 105 -231 194 -382 379
-647 28 -41 172 -218 218 -268 177 -195 442 -430 616 -547 165 -111 359 -226
456 -271 25 -11 52 -25 60 -30 8 -5 38 -19 65 -31 28 -11 68 -29 90 -39 22
-10 51 -21 65 -25 14 -4 30 -11 35 -15 13 -9 294 -102 320 -106 11 -1 20 -3
20 -4 0 -1 7 -3 15 -5 8 -2 51 -13 95 -24 44 -11 94 -23 110 -26 40 -7 75 -14
105 -20 34 -8 54 -11 130 -20 36 -4 74 -9 85 -11 96 -19 553 -26 715 -11 134
12 243 26 330 42 69 13 96 18 110 19 9 1 21 6 28 10 7 4 16 6 19 3 3 -3 17 -1
32 5 14 5 37 12 51 15 38 7 189 50 240 68 25 9 52 18 60 20 8 2 40 13 70 25
30 12 60 23 65 25 42 10 295 124 318 143 9 9 17 12 17 8 0 -4 12 1 28 11 15
10 45 27 67 38 22 11 42 22 45 25 3 3 21 14 40 24 30 17 146 89 204 128 219
147 505 399 676 598 30 35 62 71 70 80 9 9 29 34 45 55 17 22 34 44 38 50 5 5
33 44 62 85 30 41 59 80 65 87 5 7 10 15 10 19 0 4 8 17 18 28 34 38 229 383
258 456 3 8 17 39 30 68 13 29 24 54 24 56 0 2 8 21 17 42 9 22 17 41 18 44 1
3 5 12 8 20 10 23 98 289 103 310 2 11 6 28 9 38 6 23 35 142 41 167 11 45 33
163 39 205 3 25 8 56 10 70 3 14 7 48 10 75 3 28 7 70 10 95 3 25 7 105 10
178 2 73 7 137 10 143 4 5 3 9 -2 9 -4 0 -7 24 -5 52 3 66 4 61 -2 136 -16
197 -23 274 -32 322 -6 35 -25 149 -31 185 -14 90 -105 425 -132 490 -5 11
-18 47 -31 80 -64 175 -184 425 -270 566 -28 44 -50 84 -50 89 0 5 -3 10 -7
12 -5 2 -39 50 -78 108 -58 86 -163 225 -210 277 -5 6 -32 37 -60 69 -101 116
-334 342 -406 392 -12 9 -30 23 -39 32 -32 32 -268 198 -366 257 -105 64 -322
183 -339 187 -5 1 -41 16 -78 34 -38 18 -70 32 -71 32 -2 0 -21 8 -42 17 -22
9 -41 17 -44 18 -7 2 -37 14 -80 30 -29 12 -66 24 -90 30 -3 1 -12 4 -20 7
-72 27 -343 98 -425 112 -16 3 -39 7 -50 9 -11 2 -42 8 -68 11 -27 4 -56 9
-65 11 -10 1 -48 6 -87 10 -38 4 -83 9 -100 12 -36 6 -541 14 -546 8z m397
-1448 c5 -5 9 -454 9 -1000 l0 -992 998 0 c882 0 997 -2 998 -15 3 -39 4 -416
2 -425 -2 -7 -416 -10 -1221 -9 -669 1 -1219 2 -1222 3 -5 1 -6 2446 -1 2446
70 4 432 -3 437 -8z m-1335 -106 c0 -9 2 -731 2 -1606 l2 -1590 125 0 c69 -1
131 -4 138 -9 6 -4 12 -4 12 1 0 10 241 10 258 -1 7 -4 12 -4 12 1 0 12 384
11 392 -2 5 -7 8 -7 8 0 0 12 304 14 316 3 4 -4 12 -4 18 0 16 10 366 9 366
-2 0 -5 6 -4 13 1 6 5 64 7 127 6 63 -2 120 -3 125 -3 6 0 66 0 135 0 69 0
133 0 143 0 9 0 71 0 137 0 66 0 126 0 133 0 6 0 114 1 240 3 125 1 227 -2
227 -7 0 -5 6 -4 13 1 9 6 206 10 262 4 7 -1 11 -76 10 -223 l0 -223 -1831 -1
-1830 0 1 1825 c1 1004 3 1828 3 1831 1 3 101 6 222 6 193 0 220 -1 221 -15z"/>
<path d="M21943 15952 c-13 -9 -38 -54 -35 -64 1 -5 -1 -8 -5 -8 -10 0 -4
-202 12 -450 16 -238 19 -316 19 -520 0 -124 -3 -259 -7 -300 -4 -41 -9 -104
-12 -140 -2 -36 -7 -85 -10 -110 -3 -25 -7 -74 -11 -110 -3 -36 -7 -90 -10
-120 -3 -30 -7 -71 -8 -90 -18 -196 -24 -503 -11 -585 3 -22 8 -60 11 -85 3
-25 7 -63 10 -85 10 -79 5 -285 -7 -285 -4 0 -6 -8 -6 -17 1 -17 -8 -108 -19
-193 -3 -19 -7 -48 -9 -65 -2 -16 -6 -55 -10 -85 -4 -30 -8 -68 -10 -85 -2
-16 -6 -61 -10 -100 -4 -49 -2 -97 10 -160 9 -49 18 -106 20 -125 2 -19 4 -37
6 -40 1 -3 3 -9 4 -15 1 -5 4 -23 8 -40 4 -16 9 -48 12 -70 2 -22 8 -51 11
-65 4 -14 8 -150 9 -302 2 -233 4 -281 18 -301 8 -13 48 -40 89 -60 99 -49
139 -56 323 -57 119 0 158 2 265 16 30 3 61 7 67 7 20 1 21 5 38 220 10 123
18 413 19 652 0 241 -4 401 -20 785 -2 63 -7 180 -9 260 -12 335 -14 392 -19
535 -3 83 -6 150 -6 150 -4 0 -9 325 -10 701 0 254 -4 464 -8 468 -3 4 -7 17
-9 29 -1 12 -6 40 -10 62 -10 52 -10 262 0 345 18 148 20 190 18 300 -2 148
-2 171 5 192 4 15 -6 16 -108 11 -158 -9 -473 -9 -534 -1 -27 4 -55 4 -61 0z"/>
<path d="M20535 15910 c3 -19 8 -48 10 -65 3 -16 7 -91 10 -165 5 -143 13
-265 21 -340 11 -89 5 -535 -6 -535 -1 0 -3 -27 -6 -60 -6 -76 -12 -130 -14
-130 -1 0 -3 -16 -4 -35 -2 -19 -7 -62 -11 -95 -5 -33 -9 -84 -9 -112 -1 -29
-5 -53 -9 -53 -4 0 -4 -7 1 -17 5 -9 6 -28 2 -43 -4 -15 -4 -33 0 -40 4 -7 4
-25 0 -40 -4 -15 -4 -33 0 -40 4 -7 4 -25 0 -40 -4 -15 -4 -33 0 -40 4 -7 4
-25 0 -40 -4 -15 -4 -33 0 -40 4 -7 4 -25 0 -40 -4 -15 -4 -33 0 -40 4 -7 4
-25 0 -40 -4 -15 -4 -33 0 -40 4 -7 4 -25 0 -40 -4 -15 -4 -33 0 -40 4 -7 4
-25 0 -40 -4 -15 -4 -33 0 -40 4 -7 4 -25 0 -40 -4 -15 -4 -33 0 -40 4 -7 4
-25 0 -40 -4 -15 -4 -33 0 -40 4 -7 4 -25 0 -40 -4 -15 -4 -33 0 -40 4 -7 4
-25 0 -40 -4 -15 -4 -33 0 -40 4 -7 4 -25 0 -40 -4 -15 -4 -33 0 -40 4 -7 4
-25 0 -40 -4 -15 -4 -33 0 -40 4 -7 4 -25 0 -40 -4 -15 -4 -33 0 -40 4 -6 4
-27 0 -46 -4 -18 -5 -35 -3 -38 6 -6 5 -58 -2 -136 -9 -92 -19 -141 -51 -250
-89 -294 -265 -511 -463 -570 -36 -11 -97 -22 -135 -25 -38 -3 -73 -8 -78 -11
-4 -3 -17 -7 -28 -10 -45 -10 -56 -13 -85 -24 -16 -6 -32 -12 -35 -12 -7 -1
-17 -4 -105 -34 -78 -26 -195 -39 -195 -22 0 5 -4 6 -10 3 -20 -12 -148 36
-245 93 -54 31 -110 66 -120 75 -5 5 -62 44 -125 87 -181 125 -199 139 -224
179 -27 43 -74 183 -82 245 -2 22 -7 50 -11 61 -3 11 -7 33 -9 50 -2 16 -6 57
-10 90 -4 33 -8 287 -10 565 -1 278 -5 519 -9 535 -9 45 -13 67 -20 95 -24 96
-24 125 -1 236 2 12 7 39 11 60 3 22 8 53 11 69 22 123 37 1096 20 1350 -7
117 -16 198 -22 204 -1 2 -34 -4 -71 -13 -127 -30 -181 -33 -505 -26 -37 0
-86 -4 -109 -10 -34 -10 -44 -9 -59 5 -11 10 -20 12 -24 6 -4 -5 -2 -12 4 -16
6 -4 8 -11 4 -16 -3 -5 -7 -35 -9 -67 -13 -187 -24 -380 -30 -537 -5 -103 -13
-292 -21 -445 -8 -176 -9 -531 -2 -595 4 -33 10 -96 14 -140 33 -421 39 -539
49 -850 3 -93 7 -233 10 -310 5 -172 15 -310 31 -420 11 -81 12 -90 14 -95 1
-3 2 -8 1 -13 -1 -4 4 -26 9 -50 6 -23 13 -53 16 -67 16 -81 41 -139 91 -213
30 -45 59 -84 62 -87 14 -11 79 -108 107 -160 32 -60 30 -58 102 -145 47 -56
142 -145 166 -154 5 -2 19 -12 30 -22 21 -20 234 -130 276 -144 14 -4 27 -8
30 -9 26 -11 151 -49 170 -52 14 -3 32 -7 40 -9 15 -4 71 -15 100 -20 8 -1 31
-5 50 -8 111 -20 237 -28 495 -31 116 -1 216 -6 223 -10 7 -4 12 -4 12 1 0 4
13 9 28 10 15 1 64 18 107 38 44 20 89 40 100 44 11 5 31 13 45 20 14 6 75 29
135 52 121 45 165 63 208 85 16 8 35 14 42 14 7 0 15 3 17 8 2 4 26 18 53 32
28 14 52 28 55 31 3 3 16 12 30 19 90 47 272 209 366 325 44 55 134 190 134
202 0 4 9 19 20 33 11 14 20 32 20 40 0 9 5 21 12 28 13 13 19 29 75 187 36
99 73 238 88 320 2 17 7 40 9 51 8 41 16 97 21 149 3 28 8 62 10 75 19 99 24
588 10 900 -16 352 -12 939 10 1325 10 175 17 374 19 528 2 155 1 177 -13 178
-9 1 -59 2 -111 4 -52 2 -149 7 -215 11 -66 4 -132 8 -147 8 -16 1 -28 4 -28
9 0 4 -8 3 -19 -2 -10 -6 -21 -8 -23 -5 -3 2 -34 7 -69 9 -35 3 -84 8 -109 11
-25 3 -60 6 -78 7 -32 2 -33 2 -27 -33z"/>
<path d="M26780 15914 c-36 -7 -83 -15 -105 -18 -36 -5 -69 -11 -169 -30 -16
-3 -50 -9 -75 -13 -25 -4 -48 -8 -51 -8 -3 -1 -30 -5 -60 -10 -30 -5 -57 -9
-60 -10 -3 -1 -25 -5 -50 -9 -66 -11 -85 -14 -85 -16 0 -1 -12 -3 -26 -5 -31
-4 -86 -13 -114 -19 -11 -2 -40 -7 -65 -11 -25 -4 -52 -9 -60 -10 -186 -33
-197 -33 -590 -9 -47 2 -161 6 -253 8 -93 2 -170 6 -173 9 -3 2 -20 1 -37 -3
-18 -4 -43 -3 -55 1 -12 5 -22 5 -22 1 0 -4 -26 -7 -58 -8 -69 -1 -293 -14
-342 -20 -50 -6 -229 -5 -270 1 -19 3 -71 8 -115 11 -44 3 -96 8 -115 9 -169
15 -273 23 -432 30 l-138 7 0 -322 c0 -189 4 -329 10 -339 22 -42 104 -59 314
-66 61 -2 129 -6 151 -10 124 -19 401 -28 1272 -40 234 -3 351 -2 370 6 15 6
35 12 44 14 9 2 38 10 63 19 79 27 84 25 81 -41 -1 -34 -12 -78 -26 -108 -32
-70 -110 -206 -131 -229 -10 -11 -18 -26 -18 -33 0 -7 -4 -13 -8 -13 -4 0 -15
-12 -24 -28 -9 -15 -27 -39 -40 -53 -13 -14 -42 -47 -63 -74 -55 -68 -78 -96
-91 -109 -60 -62 -404 -562 -404 -586 0 -6 -4 -10 -10 -10 -5 0 -10 -5 -10
-10 0 -6 -16 -36 -35 -66 -19 -30 -35 -56 -35 -58 0 -3 -19 -37 -43 -78 -42
-71 -59 -100 -135 -238 -20 -36 -41 -68 -46 -72 -6 -4 -7 -8 -3 -8 7 0 -20
-58 -34 -70 -3 -3 -13 -21 -22 -40 -9 -19 -35 -66 -57 -105 -23 -38 -46 -81
-53 -95 -6 -14 -17 -31 -24 -38 -7 -7 -13 -17 -13 -22 0 -12 -201 -344 -211
-348 -5 -2 -9 -8 -9 -13 0 -6 -18 -37 -40 -70 -22 -33 -40 -65 -40 -70 0 -5
-4 -9 -9 -9 -5 0 -11 -8 -15 -17 -3 -10 -44 -79 -90 -153 -47 -74 -131 -214
-187 -310 -57 -96 -108 -178 -113 -182 -6 -4 -7 -8 -3 -8 4 0 -5 -19 -21 -42
-15 -24 -41 -68 -56 -98 -16 -30 -31 -57 -35 -60 -3 -3 -18 -27 -32 -55 -14
-27 -43 -80 -63 -117 l-37 -67 39 -20 c56 -29 180 -62 188 -50 3 5 9 7 14 4 5
-3 30 -1 57 5 26 5 60 12 75 14 15 3 31 7 35 9 5 3 24 8 43 11 19 3 50 10 67
15 29 8 65 7 128 -4 11 -2 36 -7 55 -10 19 -4 53 -11 75 -16 42 -10 68 -15
125 -25 41 -7 2307 -6 2368 1 23 3 59 7 80 10 20 2 60 7 87 9 28 3 77 8 110
12 33 4 74 8 92 9 33 2 141 73 126 84 -4 3 -9 83 -11 176 -6 405 -22 504 -79
520 -15 5 -35 10 -43 13 -37 12 -254 5 -830 -24 -174 -9 -781 -9 -885 0 -147
13 -203 20 -285 32 -19 2 -51 7 -70 9 -19 3 -51 7 -70 10 -19 3 -53 7 -75 10
-21 3 -41 7 -42 9 -2 2 8 17 22 34 14 16 25 33 25 37 0 3 7 13 15 21 47 48
309 459 331 520 4 10 14 27 22 37 8 9 12 17 9 17 -4 0 7 26 23 59 17 32 30 62
30 65 0 4 11 31 24 59 13 29 35 81 49 117 48 124 190 418 207 430 4 3 14 19
23 35 20 39 248 359 259 363 4 2 8 10 8 18 0 8 5 14 10 14 6 0 10 6 10 14 0 8
3 16 8 18 4 2 19 21 35 44 15 22 35 49 45 60 9 10 30 37 46 59 17 22 32 42 35
45 4 3 42 50 85 105 44 55 86 105 93 111 7 6 13 16 13 22 0 6 4 12 8 14 8 2
157 202 187 250 6 8 19 28 29 44 50 75 86 133 106 172 12 23 26 45 31 48 5 3
7 10 4 15 -4 5 -3 9 2 9 4 0 19 21 33 48 13 26 28 50 33 53 5 3 7 8 6 10 -2 2
30 61 71 132 41 70 79 136 85 147 5 11 13 20 17 20 5 0 8 4 8 10 0 11 62 103
73 108 4 2 7 8 7 14 0 6 37 52 83 102 45 50 90 100 100 111 63 70 72 158 21
202 -55 48 -101 56 -204 37z"/>
<path d="M10589 15906 c-2 -2 -62 -7 -133 -10 -71 -4 -132 -9 -136 -11 -3 -2
-28 -6 -56 -9 -27 -4 -60 -8 -74 -11 -39 -8 -73 -15 -103 -20 -16 -3 -77 -19
-135 -36 -59 -16 -111 -31 -117 -32 -36 -10 -122 -42 -144 -53 -14 -8 -33 -14
-42 -14 -9 0 -22 -7 -29 -15 -7 -8 -16 -15 -21 -15 -4 0 -20 -5 -36 -12 -15
-6 -30 -12 -33 -12 -3 -1 -16 -9 -30 -17 -14 -9 -57 -34 -96 -57 -197 -114
-365 -283 -462 -464 -33 -60 -86 -203 -97 -259 -31 -164 -27 -406 10 -609 4
-23 9 -49 20 -102 11 -60 45 -186 56 -213 7 -16 14 -39 16 -49 5 -28 84 -193
120 -249 45 -73 137 -162 198 -191 62 -31 78 -35 160 -41 110 -8 143 -15 187
-40 48 -26 188 -80 252 -96 91 -22 195 -45 255 -55 18 -3 43 -8 55 -10 11 -3
36 -7 53 -9 18 -3 54 -10 80 -16 27 -6 55 -12 63 -14 361 -78 517 -186 595
-409 27 -79 46 -229 35 -281 -1 -5 -2 -13 -1 -17 5 -35 -76 -180 -136 -243
-56 -59 -158 -145 -171 -145 -7 0 -12 -3 -12 -8 0 -4 -8 -12 -19 -17 -77 -40
-157 -80 -163 -80 -3 0 -10 -3 -14 -7 -4 -5 -17 -8 -29 -8 -11 0 -25 -4 -31
-9 -11 -11 -93 -24 -154 -23 -219 0 -437 97 -536 238 -55 79 -88 197 -83 302
2 44 -1 57 -17 69 -34 27 -254 129 -414 194 -209 83 -259 100 -284 93 -17 -4
-78 -82 -82 -104 0 -3 -3 -12 -6 -20 -50 -143 -56 -228 -23 -326 18 -54 104
-226 118 -235 5 -3 8 -9 8 -12 -1 -8 27 -73 64 -150 26 -56 96 -164 143 -222
49 -61 166 -175 179 -175 7 0 13 -4 13 -9 0 -14 151 -112 245 -159 153 -77
364 -149 520 -176 17 -3 41 -8 55 -10 14 -3 41 -8 60 -10 19 -3 45 -8 58 -10
12 -3 57 -8 100 -12 42 -3 95 -8 117 -10 112 -10 539 -12 568 -3 136 44 300
165 412 304 22 28 46 56 52 63 7 7 29 39 49 70 20 31 45 70 56 85 29 42 158
309 158 327 0 9 4 20 9 25 13 15 86 253 96 315 3 19 8 43 11 52 34 111 39 427
10 574 -26 128 -87 227 -250 400 -74 80 -196 184 -215 184 -6 0 -11 4 -11 8 0
5 -18 15 -40 22 -22 7 -40 16 -40 20 0 4 -6 7 -12 7 -7 0 -43 14 -81 32 -37
17 -68 30 -70 29 -1 0 -20 8 -42 19 -50 26 -130 43 -229 48 -55 3 -95 13 -144
34 -69 29 -93 38 -134 47 -13 3 -32 7 -43 9 -11 3 -29 7 -40 9 -11 2 -40 9
-65 16 -25 7 -56 14 -70 16 -22 3 -126 28 -155 38 -5 1 -23 6 -40 11 -16 4
-34 11 -40 16 -5 4 -12 7 -15 8 -24 1 -128 49 -180 85 -81 55 -135 120 -165
200 -19 50 -26 178 -13 241 12 60 30 120 40 133 6 6 7 12 2 12 -4 0 -3 5 4 12
7 7 12 20 12 30 0 10 4 18 9 18 5 0 14 14 22 31 35 85 159 211 257 262 63 33
85 40 157 51 63 10 194 4 218 -11 4 -2 20 -7 35 -9 15 -3 31 -9 36 -15 6 -5
18 -9 27 -9 15 0 96 -37 109 -50 3 -3 17 -11 32 -19 42 -22 88 -68 159 -160
35 -47 71 -92 79 -102 8 -9 31 -35 50 -59 53 -64 93 -105 120 -122 20 -13 170
-58 240 -73 8 -2 35 -8 60 -14 25 -7 56 -14 70 -17 14 -2 31 -7 39 -10 8 -2
30 -7 50 -10 20 -3 46 -7 59 -9 67 -11 143 138 141 271 -2 74 -39 215 -64 244
-8 8 -14 17 -15 20 -6 31 -14 50 -21 50 -5 0 -8 4 -6 9 1 5 -3 18 -10 28 -63
95 -83 126 -83 129 0 2 -6 12 -14 21 -8 10 -45 56 -83 103 -73 92 -268 291
-347 355 -28 22 -58 48 -68 58 -10 9 -21 17 -25 17 -5 0 -22 14 -40 30 -18 17
-36 30 -42 30 -5 0 -16 6 -24 14 -51 51 -292 163 -368 170 -20 1 -41 6 -46 9
-6 4 -12 5 -14 3z"/>
<path d="M14600 15880 c-102 -28 -352 -100 -370 -107 -8 -4 -18 -7 -22 -8 -5
-2 -9 -3 -10 -5 -2 -1 -11 -3 -20 -5 -58 -11 -230 -85 -328 -142 -63 -37 -117
-69 -120 -73 -13 -15 -91 -40 -140 -44 -63 -6 -89 -11 -139 -27 -56 -19 -183
-81 -201 -99 -3 -3 -25 -19 -49 -35 -44 -30 -210 -188 -266 -255 -35 -41 -165
-218 -165 -225 0 -3 -17 -31 -37 -62 -79 -121 -168 -301 -233 -468 -24 -60
-46 -119 -51 -130 -13 -33 -50 -158 -53 -180 -2 -11 -6 -30 -10 -41 -4 -12 -9
-37 -12 -55 -2 -19 -7 -54 -11 -79 -13 -89 -7 -170 22 -310 9 -41 18 -84 19
-95 7 -36 87 -349 96 -375 6 -14 11 -34 13 -45 2 -11 8 -29 12 -39 5 -10 9
-28 9 -40 1 -12 5 -27 9 -33 5 -7 10 -34 12 -60 19 -198 62 -380 129 -535 9
-21 17 -41 17 -45 1 -5 10 -20 21 -35 11 -16 16 -28 11 -28 -4 0 -3 -4 2 -8 6
-4 17 -20 25 -37 22 -44 98 -153 148 -212 228 -271 565 -478 972 -598 31 -9
59 -17 71 -19 8 -2 21 -5 29 -9 27 -9 104 -28 135 -32 17 -2 30 -4 30 -5 0 -1
11 -3 25 -6 14 -2 48 -8 75 -14 28 -5 75 -12 105 -16 30 -3 58 -7 61 -9 28
-18 572 -26 734 -12 44 4 107 10 140 12 33 3 76 7 95 10 19 3 63 7 98 10 35 3
67 7 70 9 4 2 33 7 65 10 33 4 70 11 83 16 13 5 24 8 24 5 0 -2 24 3 52 12 72
21 161 67 338 176 34 20 66 37 71 37 5 0 9 4 9 9 0 16 81 42 111 36 37 -8 103
-68 186 -168 161 -195 236 -253 290 -223 50 27 341 305 406 387 42 54 71 102
73 122 6 74 -71 159 -306 337 -170 129 -156 115 -141 134 7 9 11 16 7 16 -3 0
8 28 26 63 18 34 32 64 33 67 0 3 45 83 100 178 101 176 157 280 163 304 2 7
7 15 10 18 10 7 30 62 58 154 44 144 48 180 47 381 0 94 -3 204 -7 245 -4 41
-9 95 -11 120 -2 25 -11 88 -20 140 -9 52 -19 111 -21 130 -3 19 -9 49 -14 65
-5 17 -11 41 -14 55 -8 42 -43 172 -62 230 -10 30 -19 60 -20 65 -14 62 -137
326 -191 412 -18 29 -33 54 -33 57 0 6 -69 106 -80 116 -3 3 -23 28 -45 55
-44 56 -127 140 -195 199 -46 40 -194 140 -233 157 -33 14 -145 79 -209 121
-31 21 -68 43 -82 50 -15 6 -26 15 -26 20 0 4 -8 8 -17 8 -10 0 -29 9 -43 20
-14 11 -30 20 -36 20 -5 0 -35 12 -64 26 -62 30 -100 46 -116 49 -6 2 -27 10
-45 18 -75 33 -350 115 -447 133 -85 15 -148 26 -180 30 -20 2 -48 7 -62 9
-14 3 -88 7 -165 10 -120 4 -151 2 -215 -15z m525 -785 c115 -32 189 -56 345
-113 191 -70 247 -90 275 -103 11 -5 47 -18 80 -30 33 -12 83 -39 111 -59 53
-40 174 -159 174 -173 0 -4 9 -18 21 -30 68 -72 163 -289 195 -444 2 -12 9
-34 14 -48 5 -14 8 -25 6 -25 -2 0 2 -20 10 -45 7 -25 11 -45 8 -45 -3 0 0 -8
5 -17 5 -10 11 -31 14 -48 3 -16 8 -41 11 -55 3 -14 13 -59 21 -100 8 -41 18
-86 21 -100 2 -14 7 -43 10 -64 3 -22 7 -43 9 -47 3 -3 7 -26 10 -50 3 -24 8
-55 11 -69 15 -71 11 -101 -32 -226 -25 -71 -46 -133 -47 -139 -2 -5 -11 -27
-20 -49 -9 -21 -17 -40 -17 -42 0 -2 -16 -38 -35 -80 l-35 -76 -28 17 c-15 9
-92 83 -172 164 -210 211 -271 257 -332 249 -81 -11 -220 -140 -478 -442 -14
-16 -35 -38 -46 -49 l-22 -19 123 -123 c68 -67 142 -149 166 -181 23 -33 46
-60 51 -62 4 -2 8 -8 8 -13 0 -5 11 -26 24 -47 44 -70 43 -76 -16 -104 -73
-35 -264 -97 -374 -123 -10 -2 -39 -9 -64 -16 -25 -6 -52 -12 -60 -14 -8 -2
-46 -11 -85 -20 -38 -9 -79 -19 -90 -21 -11 -2 -29 -6 -40 -9 -60 -13 -73 -15
-105 -21 -19 -4 -44 -9 -55 -12 -51 -12 -188 -7 -271 10 -124 27 -142 32 -229
69 -16 7 -32 13 -35 14 -3 0 -34 16 -70 34 -398 205 -762 683 -846 1111 -2 14
-7 31 -10 39 -5 15 -13 94 -18 179 -4 60 12 149 48 282 25 89 33 115 52 165
10 27 9 26 19 60 4 17 11 35 15 40 5 6 15 33 23 61 8 28 20 60 25 70 6 11 31
73 57 139 67 169 187 414 221 451 16 17 45 42 64 56 50 37 184 108 204 108 9
0 16 4 16 8 0 5 6 9 13 10 6 1 65 20 130 42 64 22 127 42 140 44 12 3 22 5 22
6 0 1 7 3 15 5 8 2 33 9 55 15 22 6 48 13 58 15 41 9 57 17 57 26 0 5 7 9 15
9 8 0 15 5 15 10 0 6 5 10 12 10 6 0 19 6 27 14 33 28 82 33 316 34 177 1 253
-3 290 -13z"/>
</g>
</svg>
