<svg data-v-423bf9ae="" xmlns="http://www.w3.org/2000/svg" viewBox="0 0 339 90" class="iconLeft"><!----><!----><!----><g data-v-423bf9ae="" id="bb7bb61b-761b-4116-819e-56dbaeea9d40" fill="#ffffff" transform="matrix(6.1044314805157,0,0,6.1044314805157,107.43613313151602,-18.391243258991416)"><path d="M6.87 12.12C6.87 12.01 6.85 11.55 6.76 11.35C6.65 11.07 6.09 10.43 5.74 10.29C5.49 10.19 5.25 10.05 5.04 10.01C4.87 9.97 4.63 10.00 4.55 9.94C4.14 9.67 2.51 9.76 2.51 8.69C2.51 8.23 2.91 7.35 3.72 7.35C4.03 7.35 4.51 7.52 4.73 7.80C4.98 8.12 5.25 8.50 5.40 8.54C5.68 8.62 6.31 8.78 6.41 8.78C6.57 8.78 6.69 8.44 6.69 8.23C6.69 7.34 4.96 5.59 4.06 5.59C3.01 5.59 0.46 6.13 0.46 8.23C0.46 8.74 0.66 10.42 1.51 10.68C1.68 10.72 1.93 10.70 2.02 10.75C3.08 11.37 4.93 10.86 4.93 12.54C4.93 13.09 4.06 13.75 3.44 13.75C2.87 13.75 2.07 13.45 2.17 12.53C1.92 12.33 0.78 11.90 0.73 11.90C0.56 11.90 0.42 12.46 0.42 12.54C0.42 12.92 0.69 13.23 0.77 13.45C1.40 15.01 3.19 15.29 4.51 15.29C4.62 15.29 4.97 15.32 5.10 15.27C6.19 14.87 6.87 13.13 6.87 12.12ZM16.16 10.81C16.16 10.92 15.93 11.56 15.76 11.90C15.50 11.79 14.97 11.02 14.70 11.02C14.38 11.02 13.79 11.86 13.55 12.07C13.90 12.40 14.24 12.74 14.39 13.09C14.06 13.34 12.38 13.66 12.35 13.66C10.78 13.66 9.46 11.93 9.46 10.60C9.46 10.08 10.15 8.43 10.36 8.11C10.61 7.76 11.45 7.53 11.86 7.43C12.00 7.41 12.11 7.25 12.28 7.22C12.56 7.21 13.06 7.21 13.19 7.21C13.48 7.21 14.85 7.77 14.90 7.78C15.27 7.98 15.61 8.47 15.72 8.81C15.93 9.42 16.16 10.70 16.16 10.81ZM17.74 14.22C17.74 13.92 16.95 13.45 16.80 13.30C17.14 12.46 17.74 11.94 17.74 10.95C17.74 9.60 17.36 7.83 16.20 6.92C15.97 6.73 15.57 6.55 15.46 6.47C14.70 5.94 13.48 5.59 12.53 5.59C12.42 5.59 11.52 5.84 11.06 6.02C10.82 6.12 10.43 6.41 10.33 6.41C8.89 6.43 7.70 9.03 7.70 10.02C7.70 10.42 8.11 11.79 8.11 11.83C8.32 14.63 11.20 15.20 12.80 15.20C12.91 15.20 14.07 15.15 14.66 15.01C15.05 14.91 15.61 14.46 15.72 14.46C16.04 14.46 16.38 15.29 16.72 15.29C16.80 15.29 17.74 14.41 17.74 14.22ZM26.17 5.61C25.63 5.60 25.07 5.56 24.43 5.50C24.53 5.84 24.47 6.24 24.53 6.69C24.63 7.46 24.42 8.57 24.42 8.79L24.42 11.62C24.42 12.19 24.04 13.44 23.14 13.50C22.83 13.51 22.26 13.76 22.16 13.76C21.74 13.76 21.39 13.50 21 13.22C20.85 13.10 20.58 12.98 20.51 12.84C20.31 12.45 20.27 11.75 20.27 11.63L20.27 9.80C20.27 9.69 20.17 9.37 20.17 9.25C20.17 9.14 20.26 8.78 20.27 8.60C20.36 6.59 20.30 5.96 20.26 5.54C19.50 5.77 19.14 5.54 18.76 5.68C18.70 5.64 18.70 5.59 18.70 5.54C18.65 5.88 18.54 8.57 18.54 8.67C18.54 8.79 18.68 10.19 18.69 10.93C18.72 11.68 18.70 12.45 18.89 13.17C18.94 13.43 19.26 13.72 19.36 13.93C19.88 14.95 21.22 15.20 22.11 15.20C23.37 15.20 22.50 15.33 23.84 14.84C26.57 13.86 26.12 10.77 26.08 8.97C26.05 7.85 26.19 6.61 26.17 5.61ZM28.92 13.10C28.92 12.99 28.78 9.32 28.78 9.21L28.78 7.56C28.78 7.45 28.71 7.20 28.70 7.03C28.67 6.73 28.77 6.29 28.77 6.03C28.77 5.85 28.74 5.61 28.78 5.47C28.01 5.52 27.65 5.52 27.36 5.47C27.31 5.50 27.24 5.61 27.24 5.67C27.24 6.48 27.37 7.29 27.31 8.06C27.27 8.83 27.13 9.66 27.16 10.43C27.16 10.68 27.26 11.03 27.23 11.28C27.17 11.79 27.06 12.68 27.06 12.77C27.06 12.88 27.19 13.47 27.23 13.83C27.27 14.15 27.20 14.60 27.26 14.94C27.57 15.18 27.80 15.18 28.15 15.18C28.27 15.18 28.63 15.16 28.83 15.12C28.92 14.43 28.92 13.20 28.92 13.10ZM37.77 15.02C37.73 14.57 37.79 14.06 37.67 13.62C37.66 13.57 37.45 13.52 37.35 13.52C37.25 13.52 35.48 13.61 35.38 13.61C34.41 13.61 34.17 13.65 32.87 13.45C33.87 12.14 33.85 11.72 34.27 10.88C34.48 10.46 34.83 10.01 35.03 9.73C35.52 9.02 35.90 8.72 36.47 7.77C36.69 7.39 36.93 6.92 37.21 6.52C37.41 6.22 37.73 6.03 37.73 5.80C37.73 5.67 37.58 5.54 37.42 5.54C37.31 5.54 35.08 5.95 34.97 5.95C34.86 5.95 33.80 5.88 33.21 5.88C32.86 5.88 31.99 5.95 31.91 5.95C31.79 5.95 30.66 5.82 30.03 5.82L30.03 7.14C30.14 7.36 30.67 7.27 30.90 7.31C31.35 7.38 32.14 7.38 32.23 7.38C32.34 7.38 34.08 7.42 34.19 7.42C34.30 7.42 34.61 7.31 34.75 7.28L34.75 7.48C34.75 7.59 34.43 8.16 34.20 8.41C33.00 9.79 32.51 11.09 31.67 12.42C31.05 13.38 30.46 14.39 30.07 15.11C30.21 15.20 30.42 15.26 30.52 15.26C30.67 15.26 31.14 15.12 31.23 15.12C31.35 15.12 31.88 15.26 31.98 15.26L36.60 15.26C36.69 15.26 37.30 15.18 37.59 15.16C37.63 15.12 37.73 15.06 37.77 15.02Z"></path></g><!----><g data-v-423bf9ae="" id="e324d64a-33c2-43c4-bb36-43289786550f" transform="matrix(2.8125,0,0,2.8125,0,0)" stroke="none" fill="#14D9D9"><path d="M16 32c8.837 0 16-7.163 16-16S24.837 0 16 0 0 7.163 0 16s7.163 16 16 16zM14.817 6.421h2v8.886h8.887v2H14.817V6.421zm-5.959.437h2v14.283h14.283v2H8.858V6.858z"></path></g><!----></svg>